<svg width="288" height="143" viewBox="0 0 288 143" fill="none" xmlns="http://www.w3.org/2000/svg">
<mask id="path-1-outside-1_30_187" maskUnits="userSpaceOnUse" x="2.17157" y="-2.9091" width="148.492" height="148.492" fill="black">
<rect fill="white" x="2.17157" y="-2.9091" width="148.492" height="148.492"/>
<path fill-rule="evenodd" clip-rule="evenodd" d="M81.847 137.164C78.804 140.207 73.8702 140.207 70.8271 137.164L12.0711 78.4082C8.16582 74.5029 8.16582 68.1713 12.0711 64.266L69.6672 6.6699C73.3509 2.98623 79.3233 2.98623 83.007 6.6699C86.6906 10.3536 86.6906 16.326 83.007 20.0096L32.1881 70.8285C30.626 72.3906 30.626 74.9233 32.1881 76.4854L81.847 126.144C84.8901 129.187 84.8901 134.121 81.847 137.164Z"/>
</mask>
<path fill-rule="evenodd" clip-rule="evenodd" d="M81.847 137.164C78.804 140.207 73.8702 140.207 70.8271 137.164L12.0711 78.4082C8.16582 74.5029 8.16582 68.1713 12.0711 64.266L69.6672 6.6699C73.3509 2.98623 79.3233 2.98623 83.007 6.6699C86.6906 10.3536 86.6906 16.326 83.007 20.0096L32.1881 70.8285C30.626 72.3906 30.626 74.9233 32.1881 76.4854L81.847 126.144C84.8901 129.187 84.8901 134.121 81.847 137.164Z" fill="#7F50CC" fill-opacity="0.2"/>
<path d="M13.4853 76.994L72.2413 135.75L69.4129 138.578L10.6569 79.8224L13.4853 76.994ZM71.0814 8.08411L13.4853 65.6803L10.6568 62.8518L68.253 5.25568L71.0814 8.08411ZM84.4212 21.4239L33.6023 72.2427L30.7739 69.4143L81.5927 18.5954L84.4212 21.4239ZM33.6023 72.2427C32.8213 73.0238 32.8213 74.2901 33.6023 75.0711L30.7739 77.8996C28.4307 75.5564 28.4307 71.7574 30.7739 69.4143L33.6023 72.2427ZM33.6023 75.0711L83.2612 124.73L80.4328 127.559L30.7739 77.8996L33.6023 75.0711ZM84.4212 5.25569C88.8859 9.72041 88.8859 16.9591 84.4212 21.4239L81.5927 18.5954C84.4954 15.6928 84.4954 10.9867 81.5927 8.08411L84.4212 5.25569ZM68.253 5.25568C72.7177 0.790968 79.9565 0.790968 84.4212 5.25569L81.5927 8.08411C78.6901 5.18149 73.9841 5.18149 71.0814 8.08411L68.253 5.25568ZM83.2612 124.73C87.0853 128.554 87.0854 134.754 83.2612 138.578L80.4328 135.75C82.6948 133.488 82.6948 129.821 80.4328 127.559L83.2612 124.73ZM72.2413 135.75C74.5033 138.012 78.1708 138.012 80.4328 135.75L83.2612 138.578C79.4371 142.403 73.237 142.403 69.4129 138.578L72.2413 135.75ZM10.6569 79.8224C5.97056 75.1361 5.97055 67.5381 10.6568 62.8518L13.4853 65.6803C10.3611 68.8044 10.3611 73.8698 13.4853 76.994L10.6569 79.8224Z" fill="#7F50CC" fill-opacity="0.2" mask="url(#path-1-outside-1_30_187)"/>
<rect width="3.82382" height="123.212" rx="1.91191" transform="matrix(-0.921126 -0.389264 -0.389264 0.921126 173.099 13.3551)" fill="#7F50CC" fill-opacity="0.2"/>
<rect x="5.24156" y="-2.12745" width="11.8238" height="131.212" rx="5.91191" transform="matrix(-0.921126 -0.389264 -0.389264 0.921126 182.341 15.2277)" stroke="#7F50CC" stroke-opacity="0.2" stroke-width="8" stroke-linejoin="round"/>
<mask id="path-5-outside-2_30_187" maskUnits="userSpaceOnUse" x="130.618" y="-2.90911" width="148.492" height="148.492" fill="black">
<rect fill="white" x="130.618" y="-2.90911" width="148.492" height="148.492"/>
<path fill-rule="evenodd" clip-rule="evenodd" d="M199.436 5.50989C202.479 2.46687 207.412 2.46687 210.455 5.50989L269.211 64.266C273.117 68.1713 273.117 74.5029 269.211 78.4082L211.615 136.004C207.932 139.688 201.959 139.688 198.276 136.004C194.592 132.321 194.592 126.348 198.276 122.665L249.095 71.8457C250.657 70.2836 250.657 67.7509 249.095 66.1889L199.436 16.5297C196.392 13.4866 196.392 8.55291 199.436 5.50989Z"/>
</mask>
<path fill-rule="evenodd" clip-rule="evenodd" d="M199.436 5.50989C202.479 2.46687 207.412 2.46687 210.455 5.50989L269.211 64.266C273.117 68.1713 273.117 74.5029 269.211 78.4082L211.615 136.004C207.932 139.688 201.959 139.688 198.276 136.004C194.592 132.321 194.592 126.348 198.276 122.665L249.095 71.8457C250.657 70.2836 250.657 67.7509 249.095 66.1889L199.436 16.5297C196.392 13.4866 196.392 8.55291 199.436 5.50989Z" fill="#7F50CC" fill-opacity="0.2"/>
<path d="M267.797 65.6802L209.041 6.9241L211.869 4.09567L270.626 62.8518L267.797 65.6802ZM210.201 134.59L267.797 76.9939L270.626 79.8224L213.029 137.419L210.201 134.59ZM196.861 121.251L247.681 70.4315L250.509 73.2599L199.69 124.079L196.861 121.251ZM247.681 70.4315C248.462 69.6504 248.462 68.3841 247.68 67.6031L250.509 64.7746C252.852 67.1178 252.852 70.9168 250.509 73.2599L247.681 70.4315ZM247.68 67.6031L198.021 17.9439L200.85 15.1154L250.509 64.7746L247.68 67.6031ZM196.861 137.419C192.397 132.954 192.397 125.715 196.861 121.251L199.69 124.079C196.787 126.982 196.787 131.688 199.69 134.59L196.861 137.419ZM213.029 137.419C208.565 141.883 201.326 141.883 196.861 137.419L199.69 134.59C202.592 137.493 207.298 137.493 210.201 134.59L213.029 137.419ZM198.021 17.9439C194.197 14.1198 194.197 7.91975 198.021 4.09568L200.85 6.92411C198.588 9.18608 198.588 12.8535 200.85 15.1154L198.021 17.9439ZM209.041 6.9241C206.779 4.66213 203.112 4.66213 200.85 6.92411L198.021 4.09568C201.845 0.271612 208.045 0.271599 211.869 4.09567L209.041 6.9241ZM270.626 62.8518C275.312 67.5381 275.312 75.1361 270.626 79.8224L267.797 76.9939C270.921 73.8698 270.921 68.8044 267.797 65.6802L270.626 62.8518Z" fill="#7F50CC" fill-opacity="0.2" mask="url(#path-5-outside-2_30_187)"/>
<path d="M25.287 114.173C25.223 113.634 24.9638 113.214 24.5093 112.916C24.0547 112.618 23.4972 112.469 22.8367 112.469C22.3537 112.469 21.9311 112.547 21.5689 112.703C21.2102 112.859 20.9297 113.074 20.7273 113.348C20.5284 113.621 20.429 113.932 20.429 114.28C20.429 114.571 20.4982 114.821 20.6367 115.031C20.7788 115.237 20.9599 115.409 21.1801 115.548C21.4002 115.683 21.6311 115.794 21.8725 115.883C22.114 115.968 22.336 116.038 22.5384 116.091L23.6463 116.389C23.9304 116.464 24.2465 116.567 24.5945 116.698C24.946 116.83 25.2816 117.009 25.6012 117.236C25.9244 117.46 26.1907 117.748 26.4002 118.099C26.6098 118.451 26.7145 118.882 26.7145 119.393C26.7145 119.983 26.56 120.516 26.2511 120.991C25.9457 121.467 25.4982 121.846 24.9088 122.126C24.3228 122.407 23.6108 122.547 22.7727 122.547C21.9915 122.547 21.315 122.421 20.7433 122.169C20.1751 121.917 19.7277 121.565 19.4009 121.114C19.0778 120.663 18.8949 120.139 18.8523 119.543H20.2159C20.2514 119.955 20.3899 120.295 20.6314 120.565C20.8764 120.832 21.1854 121.031 21.5583 121.162C21.9347 121.29 22.3395 121.354 22.7727 121.354C23.277 121.354 23.7298 121.272 24.1311 121.109C24.5323 120.942 24.8502 120.711 25.0845 120.416C25.3189 120.118 25.4361 119.77 25.4361 119.372C25.4361 119.01 25.3349 118.715 25.1325 118.488C24.9301 118.261 24.6637 118.076 24.3335 117.934C24.0032 117.792 23.6463 117.668 23.2628 117.561L21.9205 117.178C21.0682 116.933 20.3935 116.583 19.8963 116.128C19.3992 115.674 19.1506 115.079 19.1506 114.344C19.1506 113.733 19.3157 113.2 19.646 112.746C19.9798 112.288 20.4272 111.933 20.9883 111.68C21.5529 111.425 22.1833 111.297 22.8793 111.297C23.5824 111.297 24.2074 111.423 24.7543 111.675C25.3012 111.924 25.7344 112.265 26.054 112.698C26.3772 113.131 26.5476 113.623 26.5654 114.173H25.287Z" fill="#5C5C5C" fill-opacity="0.8"/>
<path d="M32.0399 122.526C31.3012 122.526 30.6532 122.35 30.0956 121.998C29.5417 121.647 29.1084 121.155 28.7959 120.523C28.487 119.891 28.3325 119.152 28.3325 118.307C28.3325 117.455 28.487 116.711 28.7959 116.075C29.1084 115.439 29.5417 114.946 30.0956 114.594C30.6532 114.243 31.3012 114.067 32.0399 114.067C32.7785 114.067 33.4248 114.243 33.9788 114.594C34.5363 114.946 34.9696 115.439 35.2785 116.075C35.591 116.711 35.7473 117.455 35.7473 118.307C35.7473 119.152 35.591 119.891 35.2785 120.523C34.9696 121.155 34.5363 121.647 33.9788 121.998C33.4248 122.35 32.7785 122.526 32.0399 122.526ZM32.0399 121.396C32.601 121.396 33.0626 121.252 33.4248 120.965C33.787 120.677 34.0552 120.299 34.2292 119.83C34.4032 119.361 34.4902 118.854 34.4902 118.307C34.4902 117.76 34.4032 117.25 34.2292 116.778C34.0552 116.306 33.787 115.924 33.4248 115.633C33.0626 115.342 32.601 115.196 32.0399 115.196C31.4788 115.196 31.0172 115.342 30.6549 115.633C30.2927 115.924 30.0246 116.306 29.8506 116.778C29.6766 117.25 29.5896 117.76 29.5896 118.307C29.5896 118.854 29.6766 119.361 29.8506 119.83C30.0246 120.299 30.2927 120.677 30.6549 120.965C31.0172 121.252 31.4788 121.396 32.0399 121.396Z" fill="#5C5C5C" fill-opacity="0.8"/>
<path d="M38.9233 111.446V122.355H37.6662V111.446H38.9233Z" fill="#5C5C5C" fill-opacity="0.8"/>
<path d="M46.382 119.01V114.173H47.6391V122.355H46.382V120.97H46.2968C46.105 121.386 45.8068 121.739 45.4019 122.03C44.9971 122.318 44.4857 122.462 43.8678 122.462C43.3565 122.462 42.9019 122.35 42.5042 122.126C42.1065 121.899 41.794 121.558 41.5667 121.103C41.3394 120.645 41.2258 120.068 41.2258 119.372V114.173H42.4829V119.287C42.4829 119.884 42.6498 120.359 42.9836 120.714C43.321 121.07 43.7506 121.247 44.2727 121.247C44.5852 121.247 44.903 121.167 45.2261 121.007C45.5528 120.848 45.8263 120.603 46.0465 120.272C46.2702 119.942 46.382 119.521 46.382 119.01Z" fill="#5C5C5C" fill-opacity="0.8"/>
<path d="M53.2655 122.526C52.4984 122.526 51.8379 122.344 51.2839 121.982C50.73 121.62 50.3038 121.121 50.0055 120.485C49.7072 119.85 49.5581 119.124 49.5581 118.307C49.5581 117.476 49.7108 116.743 50.0162 116.107C50.3251 115.468 50.7548 114.969 51.3052 114.61C51.8592 114.248 52.5055 114.067 53.2442 114.067C53.8194 114.067 54.3379 114.173 54.7996 114.386C55.2612 114.599 55.6394 114.898 55.9342 115.281C56.2289 115.665 56.4118 116.112 56.4828 116.624H55.2257C55.1298 116.251 54.9168 115.92 54.5865 115.633C54.2598 115.342 53.8194 115.196 53.2655 115.196C52.7754 115.196 52.3457 115.324 51.9764 115.58C51.6106 115.832 51.3248 116.189 51.1188 116.65C50.9164 117.108 50.8152 117.646 50.8152 118.264C50.8152 118.896 50.9146 119.447 51.1135 119.915C51.3159 120.384 51.6 120.748 51.9658 121.007C52.3351 121.267 52.7683 121.396 53.2655 121.396C53.5922 121.396 53.8887 121.339 54.155 121.226C54.4214 121.112 54.6469 120.949 54.8315 120.736C55.0162 120.523 55.1476 120.267 55.2257 119.969H56.4828C56.4118 120.452 56.236 120.887 55.9555 121.274C55.6785 121.657 55.3109 121.963 54.8528 122.19C54.3983 122.414 53.8692 122.526 53.2655 122.526ZM52.6689 122.312H53.7129L53.6277 122.739C53.9047 122.781 54.1586 122.897 54.3894 123.085C54.6202 123.277 54.7356 123.58 54.7356 123.996C54.7356 124.454 54.5457 124.827 54.1657 125.114C53.7893 125.406 53.2335 125.551 52.4984 125.551L52.4558 124.72C52.7861 124.72 53.0595 124.667 53.2761 124.56C53.4963 124.457 53.6064 124.283 53.6064 124.038C53.6064 123.793 53.5158 123.626 53.3347 123.538C53.1536 123.449 52.8606 123.388 52.4558 123.357L52.6689 122.312Z" fill="#5C5C5C" fill-opacity="0.8"/>
<path d="M61.6444 122.526C60.9057 122.526 60.2577 122.35 59.7001 121.998C59.1462 121.647 58.7129 121.155 58.4004 120.523C58.0915 119.891 57.937 119.152 57.937 118.307C57.937 117.455 58.0915 116.711 58.4004 116.075C58.7129 115.439 59.1462 114.946 59.7001 114.594C60.2577 114.243 60.9057 114.067 61.6444 114.067C62.383 114.067 63.0293 114.243 63.5833 114.594C64.1408 114.946 64.5741 115.439 64.883 116.075C65.1955 116.711 65.3518 117.455 65.3518 118.307C65.3518 119.152 65.1955 119.891 64.883 120.523C64.5741 121.155 64.1408 121.647 63.5833 121.998C63.0293 122.35 62.383 122.526 61.6444 122.526ZM61.6444 121.396C62.2055 121.396 62.6671 121.252 63.0293 120.965C63.3915 120.677 63.6596 120.299 63.8337 119.83C64.0077 119.361 64.0947 118.854 64.0947 118.307C64.0947 117.76 64.0077 117.25 63.8337 116.778C63.6596 116.306 63.3915 115.924 63.0293 115.633C62.6671 115.342 62.2055 115.196 61.6444 115.196C61.0833 115.196 60.6217 115.342 60.2594 115.633C59.8972 115.924 59.6291 116.306 59.4551 116.778C59.2811 117.25 59.1941 117.76 59.1941 118.307C59.1941 118.854 59.2811 119.361 59.4551 119.83C59.6291 120.299 59.8972 120.677 60.2594 120.965C60.6217 121.252 61.0833 121.396 61.6444 121.396ZM60.0037 113.193L59.0236 113.151C59.0236 112.607 59.1781 112.163 59.4871 111.819C59.7996 111.471 60.1849 111.297 60.643 111.297C60.8454 111.297 61.0247 111.332 61.181 111.403C61.3372 111.471 61.4864 111.549 61.6284 111.638C61.7704 111.727 61.916 111.806 62.0652 111.877C62.2179 111.945 62.3901 111.979 62.5819 111.979C62.7843 111.979 62.9547 111.901 63.0932 111.744C63.2353 111.585 63.3063 111.393 63.3063 111.169L64.2651 111.254C64.2651 111.808 64.1089 112.249 63.7964 112.575C63.4874 112.902 63.1039 113.065 62.6458 113.065C62.4008 113.065 62.1984 113.032 62.0386 112.964C61.8787 112.893 61.7367 112.813 61.6124 112.724C61.4881 112.636 61.3567 112.558 61.2182 112.49C61.0797 112.419 60.9093 112.384 60.7069 112.384C60.5045 112.384 60.3358 112.463 60.2008 112.623C60.0694 112.779 60.0037 112.969 60.0037 113.193Z" fill="#5C5C5C" fill-opacity="0.8"/>
<path d="M70.7011 122.526C69.9128 122.526 69.2327 122.352 68.661 122.004C68.0928 121.652 67.6542 121.162 67.3453 120.533C67.0399 119.901 66.8872 119.166 66.8872 118.328C66.8872 117.49 67.0399 116.751 67.3453 116.112C67.6542 115.469 68.0839 114.969 68.6343 114.61C69.1883 114.248 69.8346 114.067 70.5733 114.067C70.9994 114.067 71.4202 114.138 71.8357 114.28C72.2512 114.422 72.6294 114.653 72.9703 114.972C73.3112 115.288 73.5829 115.707 73.7853 116.229C73.9877 116.751 74.0889 117.394 74.0889 118.158V118.69H67.7821V117.604H72.8105C72.8105 117.142 72.7182 116.73 72.5335 116.368C72.3524 116.006 72.0932 115.72 71.7558 115.51C71.422 115.301 71.0278 115.196 70.5733 115.196C70.0726 115.196 69.6393 115.32 69.2735 115.569C68.9113 115.814 68.6326 116.134 68.4373 116.528C68.2419 116.922 68.1443 117.344 68.1443 117.795V118.52C68.1443 119.138 68.2508 119.662 68.4639 120.091C68.6805 120.517 68.9806 120.842 69.3641 121.066C69.7476 121.286 70.1933 121.396 70.7011 121.396C71.0314 121.396 71.3297 121.35 71.596 121.258C71.8659 121.162 72.0985 121.02 72.2938 120.832C72.4891 120.64 72.64 120.402 72.7466 120.118L73.961 120.459C73.8332 120.871 73.6184 121.233 73.3165 121.545C73.0147 121.854 72.6418 122.096 72.1979 122.27C71.754 122.44 71.2551 122.526 70.7011 122.526Z" fill="#5C5C5C" fill-opacity="0.8"/>
<path d="M81.7966 116.006L80.6674 116.325C80.5963 116.137 80.4916 115.954 80.3531 115.777C80.2182 115.596 80.0335 115.446 79.7991 115.329C79.5647 115.212 79.2647 115.153 78.8989 115.153C78.3982 115.153 77.9809 115.269 77.6471 115.5C77.3169 115.727 77.1517 116.016 77.1517 116.368C77.1517 116.68 77.2654 116.927 77.4927 117.108C77.7199 117.289 78.075 117.44 78.558 117.561L79.7725 117.859C80.504 118.037 81.0491 118.309 81.4078 118.674C81.7664 119.037 81.9458 119.504 81.9458 120.075C81.9458 120.544 81.8108 120.963 81.541 121.332C81.2746 121.702 80.9017 121.993 80.4223 122.206C79.9429 122.419 79.3854 122.526 78.7498 122.526C77.9152 122.526 77.2245 122.344 76.6777 121.982C76.1308 121.62 75.7846 121.091 75.639 120.395L76.8321 120.097C76.9458 120.537 77.1606 120.867 77.4767 121.087C77.7963 121.308 78.2135 121.418 78.7285 121.418C79.3144 121.418 79.7796 121.293 80.124 121.045C80.4721 120.793 80.6461 120.491 80.6461 120.139C80.6461 119.855 80.5466 119.617 80.3478 119.425C80.1489 119.23 79.8435 119.085 79.4316 118.989L78.0679 118.669C77.3186 118.491 76.7682 118.216 76.4167 117.843C76.0686 117.467 75.8946 116.996 75.8946 116.432C75.8946 115.97 76.0243 115.562 76.2835 115.207C76.5463 114.852 76.9032 114.573 77.3542 114.37C77.8087 114.168 78.3236 114.067 78.8989 114.067C79.7086 114.067 80.3442 114.244 80.8059 114.599C81.2711 114.955 81.6013 115.423 81.7966 116.006Z" fill="#5C5C5C" fill-opacity="0.8"/>
<path d="M91.4872 122.526C90.6989 122.526 90.0188 122.352 89.4471 122.004C88.8789 121.652 88.4404 121.162 88.1314 120.533C87.826 119.901 87.6733 119.166 87.6733 118.328C87.6733 117.49 87.826 116.751 88.1314 116.112C88.4404 115.469 88.8701 114.969 89.4205 114.61C89.9745 114.248 90.6208 114.067 91.3594 114.067C91.7855 114.067 92.2063 114.138 92.6218 114.28C93.0373 114.422 93.4155 114.653 93.7564 114.972C94.0973 115.288 94.369 115.707 94.5714 116.229C94.7738 116.751 94.875 117.394 94.875 118.158V118.69H88.5682V117.604H93.5966C93.5966 117.142 93.5043 116.73 93.3196 116.368C93.1385 116.006 92.8793 115.72 92.5419 115.51C92.2081 115.301 91.8139 115.196 91.3594 115.196C90.8587 115.196 90.4255 115.32 90.0597 115.569C89.6975 115.814 89.4187 116.134 89.2234 116.528C89.0281 116.922 88.9304 117.344 88.9304 117.795V118.52C88.9304 119.138 89.037 119.662 89.25 120.091C89.4666 120.517 89.7667 120.842 90.1502 121.066C90.5338 121.286 90.9794 121.396 91.4872 121.396C91.8175 121.396 92.1158 121.35 92.3821 121.258C92.652 121.162 92.8846 121.02 93.0799 120.832C93.2752 120.64 93.4262 120.402 93.5327 120.118L94.7472 120.459C94.6193 120.871 94.4045 121.233 94.1027 121.545C93.8008 121.854 93.4279 122.096 92.984 122.27C92.5401 122.44 92.0412 122.526 91.4872 122.526Z" fill="#5C5C5C" fill-opacity="0.8"/>
<path d="M96.7873 122.355V114.173H98.0018V115.452H98.1083C98.2788 115.015 98.554 114.676 98.934 114.434C99.3139 114.189 99.7703 114.067 100.303 114.067C100.843 114.067 101.292 114.189 101.651 114.434C102.013 114.676 102.295 115.015 102.498 115.452H102.583C102.792 115.029 103.107 114.694 103.526 114.445C103.945 114.193 104.447 114.067 105.033 114.067C105.765 114.067 106.363 114.296 106.828 114.754C107.293 115.208 107.526 115.917 107.526 116.879V122.355H106.269V116.879C106.269 116.276 106.104 115.844 105.773 115.585C105.443 115.326 105.054 115.196 104.607 115.196C104.032 115.196 103.586 115.37 103.27 115.718C102.954 116.062 102.796 116.499 102.796 117.028V122.355H101.517V116.751C101.517 116.286 101.367 115.912 101.065 115.627C100.763 115.34 100.374 115.196 99.8981 115.196C99.5714 115.196 99.266 115.283 98.9819 115.457C98.7014 115.631 98.4741 115.873 98.3001 116.181C98.1296 116.487 98.0444 116.84 98.0444 117.241V122.355H96.7873Z" fill="#5C5C5C" fill-opacity="0.8"/>
<path d="M117.58 122.355H114.214V111.446H117.729C118.787 111.446 119.693 111.664 120.446 112.101C121.199 112.534 121.776 113.158 122.177 113.971C122.578 114.781 122.779 115.75 122.779 116.879C122.779 118.016 122.577 118.994 122.172 119.814C121.767 120.631 121.177 121.26 120.403 121.7C119.629 122.137 118.688 122.355 117.58 122.355ZM115.535 121.183H117.495C118.397 121.183 119.144 121.009 119.737 120.661C120.33 120.313 120.773 119.818 121.064 119.175C121.355 118.532 121.501 117.767 121.501 116.879C121.501 115.999 121.357 115.24 121.069 114.605C120.781 113.966 120.352 113.475 119.78 113.135C119.208 112.79 118.496 112.618 117.644 112.618H115.535V121.183Z" fill="#5C5C5C" fill-opacity="0.8"/>
<path d="M128.255 122.526C127.466 122.526 126.786 122.352 126.215 122.004C125.647 121.652 125.208 121.162 124.899 120.533C124.594 119.901 124.441 119.166 124.441 118.328C124.441 117.49 124.594 116.751 124.899 116.112C125.208 115.469 125.638 114.969 126.188 114.61C126.742 114.248 127.388 114.067 128.127 114.067C128.553 114.067 128.974 114.138 129.389 114.28C129.805 114.422 130.183 114.653 130.524 114.972C130.865 115.288 131.137 115.707 131.339 116.229C131.541 116.751 131.643 117.394 131.643 118.158V118.69H125.336V117.604H130.364C130.364 117.142 130.272 116.73 130.087 116.368C129.906 116.006 129.647 115.72 129.31 115.51C128.976 115.301 128.582 115.196 128.127 115.196C127.626 115.196 127.193 115.32 126.827 115.569C126.465 115.814 126.186 116.134 125.991 116.528C125.796 116.922 125.698 117.344 125.698 117.795V118.52C125.698 119.138 125.805 119.662 126.018 120.091C126.234 120.517 126.534 120.842 126.918 121.066C127.301 121.286 127.747 121.396 128.255 121.396C128.585 121.396 128.883 121.35 129.15 121.258C129.42 121.162 129.652 121.02 129.848 120.832C130.043 120.64 130.194 120.402 130.3 120.118L131.515 120.459C131.387 120.871 131.172 121.233 130.87 121.545C130.568 121.854 130.196 122.096 129.752 122.27C129.308 122.44 128.809 122.526 128.255 122.526Z" fill="#5C5C5C" fill-opacity="0.8"/>
<path d="M139.35 116.006L138.221 116.325C138.15 116.137 138.045 115.954 137.907 115.777C137.772 115.596 137.587 115.446 137.353 115.329C137.118 115.212 136.818 115.153 136.453 115.153C135.952 115.153 135.535 115.269 135.201 115.5C134.871 115.727 134.705 116.016 134.705 116.368C134.705 116.68 134.819 116.927 135.046 117.108C135.274 117.289 135.629 117.44 136.112 117.561L137.326 117.859C138.058 118.037 138.603 118.309 138.961 118.674C139.32 119.037 139.499 119.504 139.499 120.075C139.499 120.544 139.365 120.963 139.095 121.332C138.828 121.702 138.455 121.993 137.976 122.206C137.497 122.419 136.939 122.526 136.303 122.526C135.469 122.526 134.778 122.344 134.231 121.982C133.685 121.62 133.338 121.091 133.193 120.395L134.386 120.097C134.499 120.537 134.714 120.867 135.03 121.087C135.35 121.308 135.767 121.418 136.282 121.418C136.868 121.418 137.333 121.293 137.678 121.045C138.026 120.793 138.2 120.491 138.2 120.139C138.2 119.855 138.1 119.617 137.901 119.425C137.703 119.23 137.397 119.085 136.985 118.989L135.622 118.669C134.872 118.491 134.322 118.216 133.97 117.843C133.622 117.467 133.448 116.996 133.448 116.432C133.448 115.97 133.578 115.562 133.837 115.207C134.1 114.852 134.457 114.573 134.908 114.37C135.362 114.168 135.877 114.067 136.453 114.067C137.262 114.067 137.898 114.244 138.36 114.599C138.825 114.955 139.155 115.423 139.35 116.006Z" fill="#5C5C5C" fill-opacity="0.8"/>
<path d="M144.822 122.526C144.034 122.526 143.354 122.352 142.782 122.004C142.214 121.652 141.775 121.162 141.466 120.533C141.161 119.901 141.008 119.166 141.008 118.328C141.008 117.49 141.161 116.751 141.466 116.112C141.775 115.469 142.205 114.969 142.755 114.61C143.309 114.248 143.956 114.067 144.694 114.067C145.12 114.067 145.541 114.138 145.957 114.28C146.372 114.422 146.75 114.653 147.091 114.972C147.432 115.288 147.704 115.707 147.906 116.229C148.109 116.751 148.21 117.394 148.21 118.158V118.69H141.903V117.604H146.932C146.932 117.142 146.839 116.73 146.655 116.368C146.473 116.006 146.214 115.72 145.877 115.51C145.543 115.301 145.149 115.196 144.694 115.196C144.194 115.196 143.76 115.32 143.395 115.569C143.032 115.814 142.754 116.134 142.558 116.528C142.363 116.922 142.265 117.344 142.265 117.795V118.52C142.265 119.138 142.372 119.662 142.585 120.091C142.802 120.517 143.102 120.842 143.485 121.066C143.869 121.286 144.314 121.396 144.822 121.396C145.152 121.396 145.451 121.35 145.717 121.258C145.987 121.162 146.22 121.02 146.415 120.832C146.61 120.64 146.761 120.402 146.868 120.118L148.082 120.459C147.954 120.871 147.739 121.233 147.438 121.545C147.136 121.854 146.763 122.096 146.319 122.27C145.875 122.44 145.376 122.526 144.822 122.526Z" fill="#5C5C5C" fill-opacity="0.8"/>
<path d="M151.379 117.433V122.355H150.122V114.173H151.337V115.452H151.443C151.635 115.036 151.926 114.702 152.317 114.45C152.708 114.195 153.212 114.067 153.83 114.067C154.384 114.067 154.868 114.18 155.284 114.408C155.699 114.631 156.022 114.972 156.253 115.43C156.484 115.885 156.6 116.46 156.6 117.156V122.355H155.342V117.241C155.342 116.599 155.176 116.098 154.842 115.739C154.508 115.377 154.05 115.196 153.467 115.196C153.066 115.196 152.708 115.283 152.391 115.457C152.079 115.631 151.832 115.885 151.651 116.219C151.47 116.553 151.379 116.957 151.379 117.433Z" fill="#5C5C5C" fill-opacity="0.8"/>
<path d="M165.294 114.173L162.268 122.355H160.99L157.965 114.173H159.328L161.587 120.693H161.672L163.93 114.173H165.294Z" fill="#5C5C5C" fill-opacity="0.8"/>
<path d="M169.984 122.526C169.246 122.526 168.598 122.35 168.04 121.998C167.486 121.647 167.053 121.155 166.74 120.523C166.431 119.891 166.277 119.152 166.277 118.307C166.277 117.455 166.431 116.711 166.74 116.075C167.053 115.439 167.486 114.946 168.04 114.594C168.598 114.243 169.246 114.067 169.984 114.067C170.723 114.067 171.369 114.243 171.923 114.594C172.481 114.946 172.914 115.439 173.223 116.075C173.535 116.711 173.692 117.455 173.692 118.307C173.692 119.152 173.535 119.891 173.223 120.523C172.914 121.155 172.481 121.647 171.923 121.998C171.369 122.35 170.723 122.526 169.984 122.526ZM169.984 121.396C170.545 121.396 171.007 121.252 171.369 120.965C171.731 120.677 171.999 120.299 172.173 119.83C172.348 119.361 172.435 118.854 172.435 118.307C172.435 117.76 172.348 117.25 172.173 116.778C171.999 116.306 171.731 115.924 171.369 115.633C171.007 115.342 170.545 115.196 169.984 115.196C169.423 115.196 168.961 115.342 168.599 115.633C168.237 115.924 167.969 116.306 167.795 116.778C167.621 117.25 167.534 117.76 167.534 118.307C167.534 118.854 167.621 119.361 167.795 119.83C167.969 120.299 168.237 120.677 168.599 120.965C168.961 121.252 169.423 121.396 169.984 121.396Z" fill="#5C5C5C" fill-opacity="0.8"/>
<path d="M176.868 111.446V122.355H175.611V111.446H176.868Z" fill="#5C5C5C" fill-opacity="0.8"/>
<path d="M185.86 114.173L182.835 122.355H181.556L178.531 114.173H179.895L182.153 120.693H182.238L184.497 114.173H185.86Z" fill="#5C5C5C" fill-opacity="0.8"/>
<path d="M187.52 122.355V114.173H188.777V122.355H187.52ZM188.159 112.81C187.914 112.81 187.703 112.726 187.525 112.559C187.351 112.392 187.264 112.192 187.264 111.957C187.264 111.723 187.351 111.522 187.525 111.355C187.703 111.189 187.914 111.105 188.159 111.105C188.404 111.105 188.613 111.189 188.787 111.355C188.965 111.522 189.054 111.723 189.054 111.957C189.054 112.192 188.965 112.392 188.787 112.559C188.613 112.726 188.404 112.81 188.159 112.81Z" fill="#5C5C5C" fill-opacity="0.8"/>
<path d="M191.079 122.355V114.173H192.294V115.452H192.4C192.571 115.015 192.846 114.676 193.226 114.434C193.606 114.189 194.062 114.067 194.595 114.067C195.135 114.067 195.584 114.189 195.943 114.434C196.305 114.676 196.587 115.015 196.79 115.452H196.875C197.084 115.029 197.399 114.694 197.818 114.445C198.237 114.193 198.739 114.067 199.325 114.067C200.057 114.067 200.655 114.296 201.12 114.754C201.585 115.208 201.818 115.917 201.818 116.879V122.355H200.561V116.879C200.561 116.276 200.396 115.844 200.065 115.585C199.735 115.326 199.346 115.196 198.899 115.196C198.324 115.196 197.878 115.37 197.562 115.718C197.246 116.062 197.088 116.499 197.088 117.028V122.355H195.809V116.751C195.809 116.286 195.658 115.912 195.357 115.627C195.055 115.34 194.666 115.196 194.19 115.196C193.863 115.196 193.558 115.283 193.274 115.457C192.993 115.631 192.766 115.873 192.592 116.181C192.422 116.487 192.336 116.84 192.336 117.241V122.355H191.079Z" fill="#5C5C5C" fill-opacity="0.8"/>
<path d="M207.547 122.526C206.758 122.526 206.078 122.352 205.507 122.004C204.939 121.652 204.5 121.162 204.191 120.533C203.886 119.901 203.733 119.166 203.733 118.328C203.733 117.49 203.886 116.751 204.191 116.112C204.5 115.469 204.93 114.969 205.48 114.61C206.034 114.248 206.68 114.067 207.419 114.067C207.845 114.067 208.266 114.138 208.681 114.28C209.097 114.422 209.475 114.653 209.816 114.972C210.157 115.288 210.429 115.707 210.631 116.229C210.833 116.751 210.935 117.394 210.935 118.158V118.69H204.628V117.604H209.656C209.656 117.142 209.564 116.73 209.379 116.368C209.198 116.006 208.939 115.72 208.602 115.51C208.268 115.301 207.874 115.196 207.419 115.196C206.918 115.196 206.485 115.32 206.119 115.569C205.757 115.814 205.478 116.134 205.283 116.528C205.088 116.922 204.99 117.344 204.99 117.795V118.52C204.99 119.138 205.097 119.662 205.31 120.091C205.526 120.517 205.826 120.842 206.21 121.066C206.593 121.286 207.039 121.396 207.547 121.396C207.877 121.396 208.175 121.35 208.442 121.258C208.712 121.162 208.944 121.02 209.139 120.832C209.335 120.64 209.486 120.402 209.592 120.118L210.807 120.459C210.679 120.871 210.464 121.233 210.162 121.545C209.86 121.854 209.488 122.096 209.044 122.27C208.6 122.44 208.101 122.526 207.547 122.526Z" fill="#5C5C5C" fill-opacity="0.8"/>
<path d="M214.104 117.433V122.355H212.847V114.173H214.061V115.452H214.168C214.36 115.036 214.651 114.702 215.041 114.45C215.432 114.195 215.936 114.067 216.554 114.067C217.108 114.067 217.593 114.18 218.008 114.408C218.424 114.631 218.747 114.972 218.978 115.43C219.209 115.885 219.324 116.46 219.324 117.156V122.355H218.067V117.241C218.067 116.599 217.9 116.098 217.566 115.739C217.233 115.377 216.774 115.196 216.192 115.196C215.791 115.196 215.432 115.283 215.116 115.457C214.804 115.631 214.557 115.885 214.376 116.219C214.195 116.553 214.104 116.957 214.104 117.433Z" fill="#5C5C5C" fill-opacity="0.8"/>
<path d="M225.18 114.173V115.239H220.939V114.173H225.18ZM222.175 112.213H223.432V120.011C223.432 120.366 223.484 120.633 223.587 120.81C223.693 120.984 223.828 121.102 223.992 121.162C224.159 121.219 224.334 121.247 224.519 121.247C224.658 121.247 224.771 121.24 224.86 121.226C224.949 121.208 225.02 121.194 225.073 121.183L225.329 122.312C225.243 122.344 225.124 122.376 224.972 122.408C224.819 122.444 224.626 122.462 224.391 122.462C224.036 122.462 223.688 122.385 223.347 122.233C223.01 122.08 222.729 121.847 222.506 121.535C222.285 121.222 222.175 120.828 222.175 120.352V112.213Z" fill="#5C5C5C" fill-opacity="0.8"/>
<path d="M230.306 122.526C229.568 122.526 228.92 122.35 228.362 121.998C227.808 121.647 227.375 121.155 227.063 120.523C226.754 119.891 226.599 119.152 226.599 118.307C226.599 117.455 226.754 116.711 227.063 116.075C227.375 115.439 227.808 114.946 228.362 114.594C228.92 114.243 229.568 114.067 230.306 114.067C231.045 114.067 231.691 114.243 232.245 114.594C232.803 114.946 233.236 115.439 233.545 116.075C233.858 116.711 234.014 117.455 234.014 118.307C234.014 119.152 233.858 119.891 233.545 120.523C233.236 121.155 232.803 121.647 232.245 121.998C231.691 122.35 231.045 122.526 230.306 122.526ZM230.306 121.396C230.868 121.396 231.329 121.252 231.691 120.965C232.054 120.677 232.322 120.299 232.496 119.83C232.67 119.361 232.757 118.854 232.757 118.307C232.757 117.76 232.67 117.25 232.496 116.778C232.322 116.306 232.054 115.924 231.691 115.633C231.329 115.342 230.868 115.196 230.306 115.196C229.745 115.196 229.284 115.342 228.922 115.633C228.559 115.924 228.291 116.306 228.117 116.778C227.943 117.25 227.856 117.76 227.856 118.307C227.856 118.854 227.943 119.361 228.117 119.83C228.291 120.299 228.559 120.677 228.922 120.965C229.284 121.252 229.745 121.396 230.306 121.396Z" fill="#5C5C5C" fill-opacity="0.8"/>
<path d="M242.304 122.355L239.321 111.446H240.663L242.943 120.331H243.049L245.372 111.446H246.863L249.186 120.331H249.292L251.572 111.446H252.914L249.931 122.355H248.568L246.16 113.662H246.075L243.667 122.355H242.304Z" fill="#5C5C5C" fill-opacity="0.8"/>
<path d="M257.059 122.526C256.27 122.526 255.59 122.352 255.018 122.004C254.45 121.652 254.012 121.162 253.703 120.533C253.397 119.901 253.245 119.166 253.245 118.328C253.245 117.49 253.397 116.751 253.703 116.112C254.012 115.469 254.441 114.969 254.992 114.61C255.546 114.248 256.192 114.067 256.931 114.067C257.357 114.067 257.778 114.138 258.193 114.28C258.609 114.422 258.987 114.653 259.328 114.972C259.669 115.288 259.94 115.707 260.143 116.229C260.345 116.751 260.446 117.394 260.446 118.158V118.69H254.139V117.604H259.168C259.168 117.142 259.076 116.73 258.891 116.368C258.71 116.006 258.451 115.72 258.113 115.51C257.779 115.301 257.385 115.196 256.931 115.196C256.43 115.196 255.997 115.32 255.631 115.569C255.269 115.814 254.99 116.134 254.795 116.528C254.599 116.922 254.502 117.344 254.502 117.795V118.52C254.502 119.138 254.608 119.662 254.821 120.091C255.038 120.517 255.338 120.842 255.722 121.066C256.105 121.286 256.551 121.396 257.059 121.396C257.389 121.396 257.687 121.35 257.953 121.258C258.223 121.162 258.456 121.02 258.651 120.832C258.847 120.64 258.997 120.402 259.104 120.118L260.318 120.459C260.191 120.871 259.976 121.233 259.674 121.545C259.372 121.854 258.999 122.096 258.555 122.27C258.111 122.44 257.613 122.526 257.059 122.526Z" fill="#5C5C5C" fill-opacity="0.8"/>
<path d="M262.529 122.355V111.446H263.786V115.473H263.893C263.985 115.331 264.113 115.15 264.276 114.93C264.443 114.706 264.681 114.507 264.99 114.333C265.302 114.156 265.725 114.067 266.258 114.067C266.947 114.067 267.554 114.239 268.079 114.583C268.605 114.928 269.015 115.416 269.31 116.048C269.605 116.68 269.752 117.426 269.752 118.286C269.752 119.152 269.605 119.903 269.31 120.539C269.015 121.171 268.607 121.661 268.085 122.009C267.563 122.353 266.961 122.526 266.279 122.526C265.753 122.526 265.333 122.439 265.017 122.265C264.701 122.087 264.457 121.886 264.287 121.663C264.116 121.435 263.985 121.247 263.893 121.098H263.744V122.355H262.529ZM263.765 118.264C263.765 118.882 263.855 119.427 264.037 119.899C264.218 120.368 264.482 120.736 264.83 121.002C265.178 121.265 265.604 121.396 266.109 121.396C266.634 121.396 267.073 121.258 267.424 120.981C267.779 120.7 268.046 120.324 268.223 119.852C268.404 119.376 268.495 118.847 268.495 118.264C268.495 117.689 268.406 117.17 268.229 116.709C268.055 116.244 267.79 115.876 267.435 115.606C267.083 115.333 266.641 115.196 266.109 115.196C265.597 115.196 265.168 115.326 264.82 115.585C264.472 115.841 264.209 116.199 264.031 116.661C263.854 117.119 263.765 117.653 263.765 118.264Z" fill="#5C5C5C" fill-opacity="0.8"/>
<path d="M111.04 26.92C109.935 26.92 109.04 27.8154 109.04 28.92V49.24H102.4C101.295 49.24 100.4 50.1354 100.4 51.24V61.8C100.4 62.9046 101.295 63.8 102.4 63.8H109.04V102C109.04 103.105 109.935 104 111.04 104H124.6C125.705 104 126.6 103.105 126.6 102V63.8H137.8C138.905 63.8 139.8 62.9046 139.8 61.8V51.24C139.8 50.1354 138.905 49.24 137.8 49.24H126.6V28.92C126.6 27.8154 125.705 26.92 124.6 26.92H111.04ZM187.042 50.447C186.725 49.7144 186.004 49.24 185.206 49.24H173.566C172.884 49.24 172.249 49.5872 171.882 50.1613C171.514 50.7353 171.464 51.4571 171.749 52.0763L174.852 58.818L168.536 73.1538L158.598 50.4384C158.279 49.7104 157.56 49.24 156.766 49.24H143.566C142.891 49.24 142.262 49.5798 141.893 50.1437C141.523 50.7077 141.463 51.42 141.732 52.0382L165.132 105.798C165.45 106.529 166.171 107.001 166.967 107C167.764 106.999 168.484 106.526 168.801 105.796L181.93 75.514L196.359 105.859C196.697 106.568 197.418 107.014 198.203 107C198.988 106.985 199.692 106.512 200.002 105.791L223.162 52.0313C223.429 51.4133 223.366 50.7028 222.996 50.1406C222.626 49.5784 221.999 49.24 221.326 49.24H208.126C207.302 49.24 206.562 49.7456 206.262 50.5134L197.156 73.865L187.042 50.447ZM281.626 90.9886L281.634 90.9741C284.133 86.4942 285.368 81.5147 285.368 76.08C285.368 70.6487 284.134 65.7051 281.63 61.2986C279.128 56.8145 275.581 53.3124 271.028 50.8165C266.517 48.2191 261.245 46.96 255.288 46.96C249.47 46.96 244.177 48.227 239.456 50.8008C234.821 53.2914 231.188 56.7888 228.6 61.2729C226.007 65.6835 224.728 70.6364 224.728 76.08C224.728 81.9709 225.992 87.1746 228.604 91.6141L228.618 91.6389C231.293 96.0383 234.968 99.4502 239.607 101.856L239.633 101.869C244.264 104.184 249.457 105.32 255.168 105.32C261.205 105.32 266.522 104.061 271.039 101.457C275.578 98.8862 279.122 95.3928 281.626 90.9886ZM261.526 88.4377L261.498 88.4559C259.711 89.6472 257.55 90.28 254.928 90.28C252.582 90.28 250.479 89.6656 248.569 88.4377C246.626 87.1887 245.101 85.5303 243.978 83.4304C242.858 81.2544 242.288 78.8557 242.288 76.2C242.288 73.4491 242.864 71.0588 243.972 68.9812C245.105 66.8582 246.605 65.1921 248.477 63.9441L248.491 63.935C250.387 62.6479 252.513 62 254.928 62C257.55 62 259.711 62.6328 261.498 63.8241L261.526 63.8424C263.445 65.0762 264.922 66.7505 265.967 68.9111C265.979 68.9347 265.99 68.9581 266.003 68.9812C267.111 71.0588 267.688 73.4491 267.688 76.2C267.688 78.8607 267.115 81.2635 265.99 83.4427L265.979 83.4656C264.938 85.5468 263.461 87.1935 261.526 88.4377Z" fill="#7F50CC" stroke="#7F50CC" stroke-width="4" stroke-linejoin="round"/>
<path d="M4 11.64C2.89543 11.64 2 12.5354 2 13.64V101C2 102.105 2.89543 103 4 103H61.12C62.2246 103 63.12 102.105 63.12 101V87.56C63.12 86.4555 62.2246 85.56 61.12 85.56H20.04V13.64C20.04 12.5354 19.1446 11.64 18.04 11.64H4ZM76.8259 48.24C75.7214 48.24 74.8259 49.1355 74.8259 50.24V101C74.8259 102.105 75.7214 103 76.8259 103H90.2659C91.3705 103 92.2659 102.105 92.2659 101V50.24C92.2659 49.1355 91.3705 48.24 90.2659 48.24H76.8259ZM77.3675 25.4055C77.3551 25.4156 77.3428 25.4258 77.3306 25.4361C75.2885 27.1719 74.2259 29.4468 74.2259 32.12C74.2259 34.7395 75.3091 36.9656 77.3306 38.6839C77.3428 38.6942 77.3551 38.7045 77.3675 38.7145C79.3562 40.3244 81.5903 41.2 84.0259 41.2C86.435 41.2 88.6074 40.3819 90.4742 38.8099L90.4812 38.8039C92.5233 37.0681 93.5859 34.7932 93.5859 32.12C93.5859 29.4553 92.5301 27.1864 90.5007 25.4527C88.643 23.7978 86.4622 22.92 84.0259 22.92C81.5903 22.92 79.3562 23.7957 77.3675 25.4055Z" fill="#5C5C5C" stroke="#5C5C5C" stroke-width="4" stroke-linejoin="round"/>
</svg>
